PathFileType  4	(X/Y/Z) /Users/mattheworga/Documents/Git/DLSU/thesis/database/S00_Demo-Batch/P00_Demo-man/T00_Trial/pose-3d
DataRate	CameraRate	NumFrames	NumMarkers	Units	OrigDataRate	OrigDataStartFrame	OrigNumFrames
60.0	60.0	8	22	m	60.0	0	100
Frame#	Time	Hip			RHip			RKnee			RAnkle			RBigToe			RSmallToe			RHeel			LHip			LKnee			LAnkle			LBigToe			LSmallToe			LHeel			Neck			Head			Nose			RShoulder			RElbow			RWrist			LShoulder			LElbow			LWrist			
		X1	Y1	Z1	X2	Y2	Z2	X3	Y3	Z3	X4	Y4	Z4	X5	Y5	Z5	X6	Y6	Z6	X7	Y7	Z7	X8	Y8	Z8	X9	Y9	Z9	X10	Y10	Z10	X11	Y11	Z11	X12	Y12	Z12	X13	Y13	Z13	X14	Y14	Z14	X15	Y15	Z15	X16	Y16	Z16	X17	Y17	Z17	X18	Y18	Z18	X19	Y19	Z19	X20	Y20	Z20	X21	Y21	Z21	X22	Y22	Z22	

1	0.0000000	0.0239269	0.9153040	-1.4080687	-0.0729159	0.8989964	-1.4166173	-0.0327687	0.5016373	-1.4175247	0.0278236	0.1613007	-1.5789986	-0.0298190	0.0840008	-1.3544988	-0.0243025	0.0842600	-1.4541879	0.0531717	0.1047528	-1.6160808	0.1542982	0.8884109	-1.3845777	0.0597540	0.6301929	-0.9853340	0.0043276	0.1623372	-1.1664156	-0.0368540	0.1268202	-0.9652629	0.0142719	0.1172739	-0.9848906	0.0031353	0.1048652	-1.1921661	-0.0352270	1.4820503	-1.3704734	-0.0732207	1.7038125	-1.2691974	-0.0609573	1.5586597	-1.2085376	-0.1989916	1.3788831	-1.4148951	-0.2900016	1.1243486	-1.4846676	-0.3730512	0.9196264	-1.3646440	0.1463832	1.4055437	-1.4147618	0.2688686	1.1757230	-1.4722821	0.3495899	0.9504540	-1.4492452
2	0.0166667	0.0156677	0.9100461	-1.4179359	-0.0768149	0.8948794	-1.4189773	-0.0367416	0.4955413	-1.4223441	0.0269255	0.1595908	-1.5810358	-0.0137735	0.0766771	-1.3810164	-0.0229414	0.0735864	-1.4792074	0.0499217	0.1077862	-1.6193172	0.1466212	0.8826080	-1.3941815	0.0363487	0.5963904	-1.0927972	0.0027724	0.1607398	-1.1606651	-0.0408971	0.1187806	-0.9709015	0.0125886	0.1130461	-0.9882106	0.0012506	0.1023111	-1.1876215	-0.0295382	1.4799516	-1.3603441	-0.0623566	1.7020671	-1.2577468	-0.0540497	1.5567741	-1.2058996	-0.1923538	1.3817403	-1.4068290	-0.2900972	1.1279522	-1.4833392	-0.3765791	0.9279485	-1.3564802	0.1500529	1.4055192	-1.4184224	0.2726421	1.1660844	-1.4607681	0.3518623	0.9383431	-1.4351367
3	0.0333333	0.0075803	0.9054151	-1.4261812	-0.0806241	0.8917874	-1.4192651	-0.0404008	0.4900773	-1.4270970	0.0261124	0.1580194	-1.5836711	-0.0021793	0.0705072	-1.4019749	-0.0227516	0.0649240	-1.5007836	0.0470068	0.1103772	-1.6229357	0.1390984	0.8777608	-1.4021766	0.0162517	0.5682720	-1.1804515	0.0012527	0.1584807	-1.1567755	-0.0441147	0.1114421	-0.9761224	0.0113282	0.1085854	-0.9924541	-0.0005314	0.0994828	-1.1850924	-0.0239143	1.4783941	-1.3520426	-0.0512877	1.7009683	-1.2463345	-0.0462930	1.5550543	-1.2044319	-0.1861361	1.3848470	-1.3987691	-0.2902832	1.1323477	-1.4808127	-0.3800241	0.9368641	-1.3473510	0.1526090	1.4053811	-1.4238869	0.2758226	1.1573355	-1.4508089	0.3536654	0.9274446	-1.4228641
4	0.0500000	0.0004264	0.9019496	-1.4299899	-0.0843255	0.8904043	-1.4160142	-0.0436213	0.4858017	-1.4312601	0.0253105	0.1569974	-1.5868496	0.0033226	0.0662250	-1.4151419	-0.0245827	0.0596732	-1.5158057	0.0446009	0.1126319	-1.6268766	0.1324760	0.8742360	-1.4065577	0.0011430	0.5492907	-1.2370072	-0.0002354	0.1555432	-1.1553006	-0.0460749	0.1054791	-0.9804227	0.0106512	0.1040522	-0.9975925	-0.0021477	0.0964761	-1.1851372	-0.0182261	1.4776460	-1.3464854	-0.0395456	1.7009584	-1.2342204	-0.0370736	1.5537005	-1.2040587	-0.1804250	1.3883830	-1.3906316	-0.2907184	1.1381495	-1.4763419	-0.3835912	0.9470511	-1.3366926	0.1541547	1.4048757	-1.4305187	0.2783131	1.1499385	-1.4426127	0.3547543	0.9184805	-1.4128139
5	0.0666667	-0.0047637	0.8999974	-1.4263792	-0.0879231	0.8908491	-1.4088955	-0.0465495	0.4830443	-1.4341163	0.0243874	0.1570662	-1.5899314	0.0043448	0.0639024	-1.4222103	-0.0282531	0.0580100	-1.5230738	0.0427265	0.1151653	-1.6306172	0.1269562	0.8721225	-1.4061517	-0.0087356	0.5393124	-1.2621860	-0.0017140	0.1525976	-1.1554456	-0.0468581	0.1013015	-0.9834769	0.0104209	0.1000015	-1.0027241	-0.0036036	0.0937855	-1.1867857	-0.0120101	1.4775794	-1.3427688	-0.0267029	1.7020710	-1.2207244	-0.0263420	1.5529312	-1.2033058	-0.1749457	1.3923625	-1.3822418	-0.2915568	1.1456200	-1.4699019	-0.3876496	0.9590749	-1.3245330	0.1558725	1.4037339	-1.4356460	0.2804867	1.1438770	-1.4352108	0.3551551	0.9114961	-1.4039686
6	0.0833333	-0.0077210	0.8996464	-1.4146020	-0.0914042	0.8927700	-1.3985265	-0.0496196	0.4818075	-1.4351987	0.0233670	0.1584953	-1.5923639	0.0037755	0.0630330	-1.4268129	-0.0324680	0.0589799	-1.5242907	0.0414235	0.1185106	-1.6335646	0.1209347	0.8717999	-1.4017858	-0.0134493	0.5353343	-1.2624928	-0.0031458	0.1504177	-1.1561583	-0.0468572	0.0988425	-0.9853592	0.0103807	0.0969502	-1.0069204	-0.0049105	0.0919556	-1.1887341	-0.0045462	1.4777546	-1.3383152	-0.0127054	1.7038919	-1.2062997	-0.0142798	1.5527203	-1.2009542	-0.1692440	1.3966385	-1.3733436	-0.2928088	1.1547845	-1.4618814	-0.3926119	0.9733992	-1.3118912	0.1588176	1.4018400	-1.4371048	0.2827568	1.1388908	-1.4276180	0.3550396	0.9059746	-1.3950279
7	0.1000000	-0.0093191	0.9006839	-1.3970322	-0.0947980	0.8956249	-1.3858559	-0.0533066	0.4818414	-1.4343096	0.0224290	0.1610890	-1.5940533	0.0037198	0.0628753	-1.4320861	-0.0358929	0.0613494	-1.5225695	0.0408270	0.1226801	-1.6354593	0.1121188	0.8736607	-1.3954552	-0.0131458	0.5335962	-1.2461940	-0.0044202	0.1493173	-1.1568490	-0.0464897	0.0976651	-0.9863333	0.0103147	0.0949958	-1.0097901	-0.0060223	0.0912082	-1.1901867	0.0044626	1.4776955	-1.3311693	0.0021924	1.7057960	-1.1919635	-0.0011572	1.5527100	-1.1965608	-0.1629441	1.4010172	-1.3637678	-0.2943370	1.1655415	-1.4526124	-0.3988970	0.9903401	-1.3007199	0.1631724	1.3992271	-1.4346397	0.2852841	1.1346941	-1.4194678	0.3546138	0.9011715	-1.3852187
8	0.1166667	-0.0107138	0.9027184	-1.3768859	-0.0982014	0.8989280	-1.3716440	-0.0577524	0.4829087	-1.4310255	0.0216635	0.1643913	-1.5951550	0.0046703	0.0628916	-1.4393989	-0.0380785	0.0642367	-1.5203553	0.0410192	0.1272757	-1.6364525	0.0996469	0.8775161	-1.3884282	-0.0087854	0.5312490	-1.2213854	-0.0054569	0.1490831	-1.1572054	-0.0460579	0.0972080	-0.9866109	0.0100735	0.0938472	-1.0113958	-0.0069113	0.0914267	-1.1907393	0.0145178	1.4771144	-1.3215485	0.0177265	1.7072148	-1.1780909	0.0121104	1.5525952	-1.1883437	-0.1558829	1.4054120	-1.3536479	-0.2959529	1.1777066	-1.4422836	-0.4068449	1.0100348	-1.2932946	0.1685213	1.3959289	-1.4291826	0.2880836	1.1309505	-1.4107640	0.3540708	0.8963241	-1.3742482
